<svg version="1.1" id="Layer_1" xmlns="http://www.w3.org/2000/svg" xmlns:xlink="http://www.w3.org/1999/xlink" x="0px" y="0px"
	 width="100%" viewBox="0 0 4134 4134" enable-background="new 0 0 4134 4134" xml:space="preserve">
<path fill="#000000" opacity="1.000000" stroke="none" 
	d="
M2840.000000,4140.000000 
	C1893.447266,4140.000000 948.894592,4140.000000 4.170947,4140.000000 
	C4.170947,2761.613525 4.170947,1383.227295 4.170947,4.420430 
	C1382.219971,4.420430 2760.439941,4.420430 4139.330078,4.420430 
	C4139.330078,1382.666382 4139.330078,2761.333252 4139.330078,4140.000000 
	C3707.225830,4140.000000 3274.613037,4140.000000 2840.000000,4140.000000 
z"/>
<path fill="#0000FB" opacity="1.000000" stroke="none" 
	d="
M1962.986084,1713.218750 
	C1973.901123,1693.926758 1979.563721,1673.983032 1987.450073,1654.943604 
	C1993.055420,1641.410767 1998.472656,1627.799927 2004.107666,1614.279541 
	C2011.800415,1595.822144 2026.461548,1586.788452 2045.631714,1584.160889 
	C2064.127930,1581.625854 2082.675293,1580.167603 2101.396240,1580.175659 
	C2362.048828,1580.288452 2622.701416,1580.251831 2883.354004,1580.251709 
	C2988.681641,1580.251587 3094.009277,1580.310669 3199.336914,1580.193481 
	C3216.710205,1580.174194 3233.950928,1581.404541 3251.116211,1583.849976 
	C3255.695557,1584.502441 3260.206055,1585.741821 3264.693115,1586.919556 
	C3282.956787,1591.713867 3292.847412,1604.380737 3295.555176,1622.279175 
	C3300.496094,1654.936279 3299.772949,1687.254761 3287.499756,1718.625977 
	C3258.379639,1793.059448 3229.451660,1867.568237 3200.446777,1942.046875 
	C3199.721680,1943.909180 3198.977539,1945.764893 3198.288086,1947.640747 
	C3189.756592,1970.853882 3172.747559,1982.087524 3148.461914,1984.485596 
	C3129.208252,1986.386841 3109.988525,1987.765503 3090.647705,1987.763672 
	C2842.661133,1987.740112 2594.674561,1987.692749 2346.687988,1987.817993 
	C2315.429932,1987.833862 2321.112549,1983.465942 2309.934326,2012.514404 
	C2238.414795,2198.371826 2167.008301,2384.272705 2095.531494,2570.146729 
	C2079.994141,2610.552002 2064.218994,2650.865967 2048.831543,2691.327881 
	C2046.546997,2697.335449 2042.156982,2703.150146 2044.593872,2710.297363 
	C2048.846680,2713.146484 2053.622314,2712.197510 2058.169678,2712.199707 
	C2176.163330,2712.258057 2294.156982,2712.250244 2412.150635,2712.241211 
	C2415.481689,2712.240967 2418.813232,2712.124023 2422.143555,2712.025146 
	C2426.600342,2711.893066 2429.684814,2709.587891 2431.434814,2705.642090 
	C2433.324463,2701.381836 2434.973145,2697.013428 2436.671387,2692.670410 
	C2452.440918,2652.349121 2468.209717,2612.027344 2483.940918,2571.690918 
	C2485.389648,2567.976074 2486.741211,2564.206543 2487.837158,2560.376221 
	C2488.802734,2557.002441 2486.400146,2553.826904 2482.610840,2553.592285 
	C2477.295166,2553.262939 2471.956299,2553.211182 2466.627441,2553.206299 
	C2433.295898,2553.175537 2399.963623,2553.315430 2366.633057,2553.133545 
	C2351.981445,2553.053467 2337.299316,2552.814453 2322.694580,2551.766357 
	C2312.779053,2551.054932 2302.730713,2549.690674 2293.174316,2547.051514 
	C2277.276367,2542.661133 2266.102295,2532.522949 2263.063232,2515.685791 
	C2257.429443,2484.470215 2256.808838,2453.417725 2268.523193,2423.183594 
	C2286.570068,2376.607178 2304.666748,2330.049561 2322.762939,2283.492188 
	C2333.862793,2254.935303 2344.935059,2226.367432 2356.166748,2197.862305 
	C2359.093018,2190.436035 2362.282471,2183.082520 2365.858887,2175.950195 
	C2372.219727,2163.264893 2382.717041,2155.368652 2396.426514,2152.307373 
	C2405.492920,2150.282471 2414.771240,2148.750732 2424.029785,2148.146973 
	C2438.644287,2147.193848 2453.321533,2146.867676 2467.972656,2146.860840 
	C2637.296875,2146.780029 2806.621094,2146.780029 2975.945312,2146.860596 
	C2990.596436,2146.867432 3005.245605,2147.697021 3019.898682,2147.958496 
	C3029.993164,2148.138184 3039.839600,2150.055664 3049.427002,2152.762695 
	C3066.302734,2157.527100 3077.087158,2168.778076 3079.912598,2186.206787 
	C3085.319580,2219.557129 3084.364258,2252.312256 3071.754395,2284.462402 
	C3017.763672,2422.115967 2964.270264,2559.964111 2910.480713,2697.696533 
	C2860.327637,2826.117432 2809.645020,2954.333740 2760.114990,3082.993896 
	C2750.047607,3109.144531 2733.684814,3122.557861 2705.905273,3125.510742 
	C2683.921143,3127.847168 2661.984863,3128.127441 2640.059814,3128.141846 
	C2285.412354,3128.373047 1930.764893,3128.367432 1576.117554,3128.158447 
	C1552.855225,3128.144775 1529.416016,3129.198242 1506.365845,3124.334717 
	C1502.466797,3123.512207 1498.482300,3123.005615 1494.661255,3121.917480 
	C1477.743652,3117.101318 1467.378418,3106.073975 1463.672729,3088.810303 
	C1459.143311,3067.708008 1459.370483,3046.434570 1461.643921,3025.148438 
	C1462.419067,3017.890625 1464.294678,3010.750000 1466.030151,3001.840332 
	C1461.598145,2992.000488 1465.740601,2984.499512 1468.538574,2977.262939 
	C1520.077515,2843.965332 1572.700806,2711.087402 1623.760620,2577.605469 
	C1657.698486,2488.884766 1692.413086,2400.465820 1726.408325,2311.766602 
	C1762.273926,2218.186768 1799.559448,2125.143555 1835.117676,2031.440430 
	C1869.248047,1941.499756 1905.567383,1852.408936 1939.138306,1762.243530 
	C1945.231201,1745.879150 1949.316895,1727.861816 1962.986084,1713.218750 
z"/>
<path fill="#EF01F2" opacity="1.000000" stroke="none" 
	d="
M1461.131104,2998.751709 
	C1449.373169,3027.116699 1438.632080,3054.321289 1427.923706,3081.538818 
	C1425.243164,3088.352295 1422.564819,3095.169678 1420.063354,3102.050049 
	C1412.682007,3122.351562 1397.688721,3133.052490 1376.794678,3135.608398 
	C1362.267090,3137.385498 1347.623901,3139.199219 1333.025757,3139.256348 
	C1247.037231,3139.593018 1161.046021,3139.576172 1075.057373,3139.258301 
	C1061.122681,3139.206543 1047.170532,3137.280762 1033.277832,3135.755371 
	C1028.034058,3135.179199 1022.827820,3133.605225 1017.791260,3131.926270 
	C1004.188171,3127.390869 995.131042,3118.274170 991.488525,3104.247559 
	C990.152344,3099.102295 988.750610,3093.866699 988.364990,3088.599854 
	C986.108154,3057.774414 988.108704,3027.742920 999.757507,2998.322998 
	C1025.977905,2932.102051 1051.029053,2865.417236 1076.440186,2798.876709 
	C1114.431763,2699.393799 1152.262085,2599.849609 1190.275391,2500.375000 
	C1227.341309,2403.379150 1264.541138,2306.434326 1301.700928,2209.474121 
	C1326.471680,2144.840332 1351.283813,2080.222168 1376.040894,2015.583008 
	C1377.464355,2011.866455 1378.873047,2008.088135 1379.660522,2004.210938 
	C1379.994873,2002.565674 1379.111694,2000.142944 1376.542725,2000.036133 
	C1369.900879,1999.759888 1363.253662,1999.450195 1356.608521,1999.448975 
	C1184.628784,1999.417725 1012.648987,1999.529297 840.669617,1999.281982 
	C820.729980,1999.253418 800.793030,1997.272949 780.855347,1996.186768 
	C779.525452,1996.114136 778.191895,1996.010254 776.874634,1995.819946 
	C746.539856,1991.440063 734.055176,1978.187134 731.373535,1947.255493 
	C728.396729,1912.919434 732.358032,1880.102051 746.118225,1847.702271 
	C777.079102,1774.801392 806.059326,1701.059448 835.857605,1627.664795 
	C837.610779,1623.346680 839.504272,1619.085815 841.272644,1614.773682 
	C849.933044,1593.654663 865.807922,1582.729492 888.304688,1579.610962 
	C911.515686,1576.393311 934.809753,1575.976196 958.100403,1575.965210 
	C1254.732056,1575.825073 1551.363647,1575.806641 1847.995239,1576.013916 
	C1869.930298,1576.029175 1891.997192,1575.426392 1913.789795,1579.286743 
	C1916.411621,1579.751221 1919.105347,1579.828125 1921.714600,1580.343506 
	C1946.785278,1585.295776 1959.412720,1597.179565 1962.636475,1622.689941 
	C1966.240356,1651.208984 1966.650879,1679.889404 1956.314941,1709.292725 
	C1956.077271,1735.889282 1942.443970,1756.581665 1933.989868,1778.615845 
	C1877.772705,1925.137085 1821.751465,2071.738525 1764.902710,2218.013672 
	C1710.305542,2358.495361 1656.093018,2499.128418 1601.709839,2639.690674 
	C1556.928955,2755.434814 1511.725098,2871.022949 1467.777466,2987.090820 
	C1466.341431,2990.883545 1464.529541,2994.359863 1461.131104,2998.751709 
z"/>
<path fill="#D801DB" opacity="1.000000" stroke="none" 
	d="
M2872.000977,1141.412109 
	C3033.316162,1141.412109 3192.631592,1141.332764 3351.946777,1141.515137 
	C3371.235352,1141.537231 3390.548096,1142.599243 3409.798828,1143.920166 
	C3418.366211,1144.508057 3427.034912,1146.187256 3435.256348,1148.689453 
	C3451.055908,1153.498291 3461.689941,1163.790771 3464.871826,1180.587402 
	C3471.055908,1213.233887 3470.489258,1245.570801 3458.957031,1277.047607 
	C3447.966797,1307.044556 3436.310059,1336.797119 3424.991211,1366.674072 
	C3407.305420,1413.356567 3389.677490,1460.061035 3371.967285,1506.734253 
	C3369.608398,1512.951416 3367.097656,1519.124878 3364.338135,1525.172974 
	C3357.539551,1540.073975 3346.176270,1549.102539 3330.115723,1553.169067 
	C3313.112549,1557.474487 3295.727051,1556.585449 3278.564941,1558.495850 
	C3273.955811,1559.008789 3269.241211,1558.577759 3264.575195,1558.577759 
	C2512.660400,1558.578125 1760.745483,1558.594360 1008.830627,1558.472778 
	C992.212097,1558.470093 975.584595,1557.039062 958.981323,1555.964600 
	C954.378418,1555.666748 949.858215,1554.196289 945.282227,1553.361816 
	C923.337158,1549.360229 911.230042,1535.458862 908.631897,1514.128906 
	C904.655334,1481.481567 905.381531,1449.186646 917.598755,1417.723755 
	C946.992004,1342.028320 975.739441,1266.082153 1004.799744,1190.257202 
	C1007.180237,1184.046021 1009.777466,1177.902832 1012.591309,1171.876221 
	C1018.295044,1159.659790 1027.965332,1151.824585 1040.828491,1148.361816 
	C1048.509888,1146.293945 1056.444702,1144.556030 1064.352783,1144.059814 
	C1084.942505,1142.767944 1105.580078,1141.521484 1126.198853,1141.516846 
	C1707.466187,1141.386230 2288.733398,1141.411865 2872.000977,1141.412109 
z"/>
<path fill="#160022" opacity="1.000000" stroke="none" 
	d="
M1461.673340,3000.007812 
	C1460.302368,2993.042969 1463.843384,2987.238770 1466.205200,2981.089111 
	C1503.886475,2882.973633 1541.666626,2784.895752 1579.369507,2686.788574 
	C1650.236694,2502.383789 1721.008179,2317.942627 1791.934204,2133.560791 
	C1845.190796,1995.112793 1898.625732,1856.733398 1951.995972,1718.329102 
	C1952.712036,1716.472290 1953.620605,1714.689941 1955.285889,1711.929443 
	C1957.469971,1711.197754 1958.807861,1711.409546 1962.155273,1711.917236 
	C1963.243164,1721.675049 1958.759033,1730.002319 1955.422729,1738.636719 
	C1896.382446,1891.431519 1837.175293,2044.161743 1778.055908,2196.926025 
	C1709.564697,2373.906006 1641.166382,2550.921875 1572.642578,2727.889404 
	C1537.780273,2817.923340 1502.731323,2907.884766 1467.079834,2999.001953 
	C1465.343384,3000.119141 1464.293823,3000.113770 1461.673340,3000.007812 
z"/>
<path fill="#FAFAFF" opacity="1.000000" stroke="none" 
	d="
M3057.947754,2226.606445 
	C3056.828613,2229.586426 3056.143311,2231.301758 3055.428467,2234.409912 
	C3056.596436,2258.949219 3044.380859,2278.358398 3036.883057,2298.875732 
	C3030.170166,2317.245361 3023.447510,2335.744385 3014.698975,2354.973389 
	C3013.657959,2358.293701 3012.893066,2360.114990 3011.253906,2363.172852 
	C2993.450439,2408.307129 2977.444824,2452.563477 2958.557129,2497.215576 
	C2957.877930,2500.431885 2957.423096,2502.233398 2956.094971,2505.158203 
	C2953.952637,2510.422119 2951.570068,2514.104248 2949.803467,2519.443115 
	C2948.998291,2522.315186 2948.390137,2523.905762 2947.146973,2526.608887 
	C2945.392090,2531.838135 2943.467773,2535.652588 2941.767334,2540.949707 
	C2940.782959,2543.887695 2940.012695,2545.492432 2938.654053,2548.329102 
	C2930.249756,2573.696045 2920.126465,2596.925781 2910.371094,2621.783691 
	C2909.715332,2624.965088 2909.214355,2626.739258 2907.841797,2629.646484 
	C2905.903564,2635.159912 2902.921631,2638.764404 2901.714844,2644.571289 
	C2900.855713,2647.667236 2900.078613,2649.334473 2898.612061,2652.225098 
	C2888.914307,2676.391113 2880.622803,2699.596436 2870.948975,2723.803711 
	C2869.586182,2726.882324 2868.747559,2728.615479 2867.141113,2731.596680 
	C2852.722168,2770.613281 2837.809570,2807.872070 2822.273438,2846.446045 
	C2821.673340,2849.847412 2821.035156,2851.691895 2819.451172,2854.753662 
	C2806.505859,2889.945068 2792.279785,2923.067871 2779.025146,2958.114746 
	C2777.996094,2961.296387 2777.352783,2963.085693 2775.811035,2966.033936 
	C2773.893799,2975.810303 2768.876465,2982.901611 2765.877441,2992.285645 
	C2764.995361,2995.586426 2764.149658,2997.364014 2762.564453,3000.476562 
	C2754.530518,3018.848877 2747.862793,3036.129395 2741.931885,3053.669434 
	C2737.859863,3065.711670 2731.556885,3075.137451 2716.674316,3078.403320 
	C2704.391846,3083.061035 2693.303467,3084.336182 2681.822754,3084.334717 
	C2312.695557,3084.288086 1943.568604,3084.319336 1574.441528,3084.239502 
	C1568.447998,3084.238037 1562.431885,3084.385010 1556.472534,3083.631836 
	C1524.604492,3079.603516 1508.137329,3056.301270 1516.656982,3025.429688 
	C1525.701416,2992.656006 1540.017090,2961.725342 1552.290161,2930.093018 
	C1639.212158,2706.063965 1725.647339,2481.846680 1812.457153,2257.774414 
	C1890.372192,2056.660889 1968.220459,1855.521973 2045.734253,1654.253662 
	C2052.286377,1637.240723 2059.455322,1620.869629 2078.373535,1610.964478 
	C2082.448242,1609.416992 2084.919922,1608.978394 2089.397705,1608.854736 
	C2101.283203,1610.386475 2111.292236,1610.002808 2121.283203,1610.002930 
	C2485.195068,1610.010010 2849.106934,1609.990601 3213.018799,1610.092285 
	C3223.578613,1610.095215 3234.383301,1608.325684 3246.353027,1613.617798 
	C3272.712646,1622.533936 3279.234619,1634.104370 3273.043945,1658.944580 
	C3272.567139,1660.856689 3272.174805,1662.789673 3271.739502,1666.313721 
	C3274.523926,1674.174927 3271.878174,1679.916138 3269.791992,1687.006104 
	C3268.797852,1690.722290 3267.687500,1693.009521 3266.163574,1696.461548 
	C3264.902832,1700.831299 3262.600830,1703.411499 3261.628906,1707.891846 
	C3260.766357,1710.642334 3260.162842,1712.176636 3258.983154,1714.816895 
	C3257.259521,1719.946289 3255.298096,1723.658569 3253.616211,1728.847656 
	C3252.678467,1731.716431 3252.068359,1733.340820 3250.926758,1736.193848 
	C3244.357178,1751.669434 3240.423096,1766.690552 3234.042725,1782.252441 
	C3232.976318,1785.203491 3232.215820,1786.817383 3230.884277,1789.613281 
	C3229.033203,1797.743164 3224.754395,1803.388550 3221.967773,1811.039062 
	C3221.224121,1813.907471 3220.628418,1815.485840 3219.383789,1818.143433 
	C3217.752197,1823.255371 3215.013672,1826.539673 3213.678223,1831.754883 
	C3212.840088,1834.515991 3212.246826,1836.056274 3211.057129,1838.693481 
	C3209.322510,1843.806274 3207.457275,1847.547485 3205.770508,1852.720703 
	C3204.831787,1855.585083 3204.115723,1857.157715 3202.780273,1859.898926 
	C3198.247314,1874.989502 3192.343018,1888.115234 3186.131104,1902.576172 
	C3185.139648,1906.643066 3183.831787,1909.097534 3182.000244,1912.883789 
	C3180.406738,1916.995972 3178.690674,1919.426270 3176.383301,1923.329834 
	C3174.846436,1925.503540 3174.176025,1926.356323 3171.034180,1929.512085 
	C3167.556885,1932.410156 3166.551025,1933.005127 3162.348145,1935.288574 
	C3146.314209,1942.078979 3132.830078,1940.465942 3119.583008,1940.471680 
	C2870.261230,1940.579468 2620.939697,1940.543701 2371.617920,1940.547241 
	C2364.284912,1940.547363 2356.870361,1941.255005 2349.634033,1940.420044 
	C2325.534424,1937.639160 2305.989258,1942.615112 2296.846191,1970.194580 
	C2294.262939,1975.954590 2294.028564,1980.653320 2291.055664,1986.104614 
	C2289.937500,1989.592407 2289.193359,1991.515869 2287.477783,1994.648682 
	C2279.496582,2014.621704 2273.241211,2033.657837 2265.781494,2053.730469 
	C2264.937256,2056.898193 2264.162354,2058.597168 2262.612305,2061.456543 
	C2257.774902,2068.779297 2257.281494,2076.338867 2253.830811,2084.187988 
	C2253.042480,2087.338623 2252.281738,2089.032715 2250.751953,2091.928711 
	C2239.638672,2115.616455 2232.827148,2139.486084 2222.512939,2163.515625 
	C2221.488281,2166.716797 2220.733398,2168.473877 2219.126953,2171.434082 
	C2208.315918,2197.728760 2200.284424,2223.532227 2189.765137,2249.906494 
	C2188.901367,2253.121338 2188.115967,2254.848145 2186.680908,2257.815430 
	C2180.260010,2271.494873 2176.915283,2284.873535 2170.728027,2298.583496 
	C2169.730225,2301.532471 2169.097168,2303.183838 2167.689209,2305.915039 
	C2165.517334,2311.030273 2163.994629,2315.017334 2161.951660,2320.168213 
	C2161.017578,2323.006348 2160.331055,2324.567383 2159.008301,2327.246338 
	C2155.239990,2336.353271 2154.221191,2345.029053 2150.055664,2354.016602 
	C2149.049316,2356.837402 2148.309082,2358.376953 2146.932129,2361.031738 
	C2146.216064,2363.045166 2146.020264,2363.886475 2145.403564,2365.961426 
	C2144.259521,2368.795898 2143.471680,2370.365234 2142.201172,2373.178711 
	C2132.556396,2394.373047 2125.695557,2415.207764 2117.868896,2437.076660 
	C2117.215088,2440.123779 2116.553955,2441.754639 2115.073730,2444.416992 
	C2113.299072,2448.612061 2110.840576,2451.026123 2109.641602,2455.400879 
	C2108.432861,2458.699463 2107.372314,2460.771729 2106.149414,2464.007080 
	C2105.707520,2465.878418 2105.513184,2466.625732 2104.975586,2468.482422 
	C2104.134277,2471.063965 2103.604736,2472.525391 2102.633301,2475.080078 
	C2101.192627,2480.022949 2098.551514,2483.222656 2097.517090,2488.360596 
	C2096.645264,2491.071289 2096.036621,2492.584229 2094.838379,2495.192139 
	C2091.710938,2502.428955 2089.035156,2508.513672 2086.043945,2515.825684 
	C2084.726562,2519.348145 2083.617432,2521.599365 2082.333496,2525.149902 
	C2080.780518,2529.560547 2079.233398,2532.608398 2077.761719,2537.092773 
	C2076.338623,2541.710693 2074.522949,2544.814697 2073.862305,2549.747559 
	C2064.884277,2573.348877 2056.726074,2595.823730 2046.719116,2619.113770 
	C2045.913208,2622.387939 2045.408325,2624.251953 2044.179932,2627.413330 
	C2033.505859,2657.133057 2020.629883,2684.467041 2011.089600,2714.528564 
	C2007.478271,2722.441406 2002.090332,2728.813477 2009.115234,2737.281494 
	C2018.421875,2742.054443 2027.031616,2742.045410 2035.720459,2742.042236 
	C2170.617676,2741.994385 2305.514893,2741.983154 2440.412109,2742.062988 
	C2449.807373,2742.068604 2458.977783,2741.260254 2469.355957,2737.537109 
	C2482.699707,2733.537109 2484.188232,2722.331543 2489.063477,2712.016602 
	C2490.150391,2708.937256 2490.808594,2707.189941 2491.921875,2704.103516 
	C2501.369629,2678.702148 2510.213623,2654.582764 2520.395508,2629.457275 
	C2521.651367,2626.409180 2522.423828,2624.696045 2523.754883,2621.693115 
	C2526.190430,2616.109131 2528.241699,2611.886475 2529.855957,2605.918701 
	C2530.772705,2602.552002 2531.357666,2600.619873 2532.418213,2597.169922 
	C2541.050049,2573.127441 2550.455566,2551.078125 2558.253906,2528.405029 
	C2564.097656,2511.415283 2562.775146,2508.586182 2544.217773,2508.449707 
	C2489.555664,2508.047607 2434.889893,2508.336670 2380.225586,2508.292480 
	C2371.559570,2508.285400 2362.858398,2508.659668 2354.239746,2507.799805 
	C2324.673828,2504.851807 2311.202637,2487.766113 2314.775146,2456.091309 
	C2315.820801,2452.603271 2316.558838,2450.696045 2317.949219,2447.492188 
	C2320.397461,2442.011719 2322.652100,2438.040039 2324.974121,2432.658691 
	C2326.194824,2429.915771 2326.921387,2428.375488 2328.118164,2425.672852 
	C2329.177734,2422.938232 2329.786865,2421.374756 2330.773926,2418.589600 
	C2331.677002,2415.713867 2332.233154,2414.070312 2333.216309,2411.152832 
	C2342.099854,2390.555176 2348.277832,2370.363281 2356.598633,2349.540527 
	C2357.800781,2346.659668 2358.543213,2345.053223 2359.825439,2342.268555 
	C2362.102051,2337.245605 2364.094482,2333.515137 2365.816650,2328.296387 
	C2366.732178,2325.499512 2367.286621,2323.910156 2368.228516,2321.103027 
	C2369.977783,2315.803711 2371.734131,2311.870850 2373.589844,2306.564941 
	C2374.635254,2303.644775 2375.271240,2301.980713 2376.349609,2299.020264 
	C2385.203857,2273.884033 2395.213623,2250.662842 2404.603516,2225.714844 
	C2405.763672,2222.720703 2406.493164,2221.049316 2407.786133,2218.154785 
	C2411.431885,2210.553467 2414.480469,2204.156982 2418.228760,2196.557617 
	C2419.349609,2194.514648 2419.838867,2193.707031 2421.164551,2191.710693 
	C2422.625244,2189.748047 2423.249756,2188.974121 2424.916504,2187.072754 
	C2426.734619,2185.225098 2427.510010,2184.504395 2431.034180,2181.915771 
	C2434.854492,2179.615234 2435.926270,2179.183105 2438.750488,2178.440430 
	C2441.720947,2178.108643 2442.938721,2178.087402 2446.019531,2178.050293 
	C2632.362305,2177.975830 2816.842041,2178.041748 3001.322021,2177.966553 
	C3013.315674,2177.961670 3025.235107,2177.964355 3038.640137,2182.478516 
	C3057.880127,2189.493896 3061.726807,2203.034668 3059.508301,2221.322266 
	C3059.161621,2223.738037 3058.771973,2224.539795 3057.947754,2226.606445 
z"/>
<path fill="#0403FF" opacity="1.000000" stroke="none" 
	d="
M2863.179199,2724.829102 
	C2873.477295,2699.568604 2882.924805,2674.958740 2893.171875,2649.030273 
	C2894.089844,2646.973389 2894.208496,2646.234375 2895.143799,2644.724365 
	C2895.492432,2638.822998 2898.825195,2634.860352 2900.879883,2629.028320 
	C2901.834717,2627.032715 2902.069336,2626.292480 2903.104492,2624.706543 
	C2903.484375,2617.601562 2906.907715,2612.420898 2908.979492,2606.950195 
	C2916.682373,2586.611572 2924.795898,2566.428711 2933.654785,2544.865967 
	C2934.477051,2542.858643 2934.399902,2542.172852 2935.207520,2540.949463 
	C2937.573730,2535.643799 2939.055664,2530.875732 2941.395752,2524.865723 
	C2942.282471,2522.903320 2942.311279,2522.182617 2943.170898,2520.769287 
	C2943.320312,2514.784180 2947.467773,2511.018311 2949.152344,2504.974365 
	C2950.063965,2502.966553 2950.202637,2502.214111 2951.114746,2500.614014 
	C2957.364746,2479.439697 2966.282959,2460.381836 2973.770264,2440.803711 
	C2983.837891,2414.478271 2994.417236,2388.348633 3005.679199,2360.834473 
	C3006.495117,2358.851318 3006.408936,2358.168213 3007.208984,2356.954102 
	C3011.246582,2340.006592 3019.756104,2325.534668 3025.142578,2309.898682 
	C3033.551270,2285.489502 3043.814941,2261.719482 3054.345703,2236.740723 
	C3063.601807,2240.616943 3064.227295,2241.082520 3062.039062,2247.371826 
	C3055.258301,2266.861572 3048.427979,2286.345703 3041.036865,2305.609375 
	C3023.394287,2351.591309 3005.469971,2397.465820 2987.555664,2443.343018 
	C2979.566650,2463.802490 2971.237061,2484.128662 2963.219971,2504.577148 
	C2947.671631,2544.235596 2932.312988,2583.968506 2916.732178,2623.614258 
	C2897.256836,2673.169922 2877.496094,2722.613281 2858.126953,2772.210205 
	C2843.842529,2808.788574 2830.188721,2845.612793 2815.896973,2882.188232 
	C2792.884766,2941.081055 2770.043701,3000.048340 2746.216309,3058.612061 
	C2732.661377,3091.927002 2706.583496,3109.327881 2670.732178,3111.917725 
	C2666.089355,3112.253174 2661.403809,3112.007812 2656.738037,3112.007812 
	C2290.802246,3112.010010 1924.866699,3112.011230 1558.931030,3112.002930 
	C1548.292725,3112.002686 1537.822754,3111.972900 1527.331055,3108.661621 
	C1514.965210,3104.758789 1503.698486,3099.827637 1495.403809,3089.474365 
	C1494.163818,3087.926514 1492.742432,3086.381836 1491.091064,3085.326660 
	C1470.892456,3072.416748 1469.999756,3053.055176 1473.973755,3032.555664 
	C1477.530151,3014.209229 1483.905762,2996.597900 1490.611694,2979.202393 
	C1511.198975,2925.796143 1532.055298,2872.493164 1552.898315,2819.185791 
	C1573.015015,2767.735840 1593.407349,2716.393311 1613.381226,2664.887939 
	C1634.558228,2610.280762 1655.291992,2555.501709 1676.392456,2500.864258 
	C1695.814575,2450.572998 1715.550537,2400.402588 1734.990967,2350.118408 
	C1751.311401,2307.904785 1767.357178,2265.584717 1783.614990,2223.346680 
	C1796.046875,2191.048340 1808.608521,2158.800049 1821.133545,2126.537598 
	C1836.790283,2086.207764 1852.413940,2045.865234 1868.151123,2005.566895 
	C1888.730469,1952.869629 1909.592651,1900.282104 1929.986450,1847.513428 
	C1948.461060,1799.710327 1966.116333,1751.588501 1984.858521,1703.892334 
	C1992.393188,1684.717773 1998.091553,1664.755493 2008.492554,1646.703857 
	C2012.205078,1640.260620 2015.856689,1634.380371 2022.430176,1630.229614 
	C2027.411621,1627.083984 2031.629517,1622.549561 2035.698120,1618.177979 
	C2042.732666,1610.619751 2051.073975,1605.535522 2061.065186,1603.049927 
	C2075.907715,1599.357422 2090.687744,1595.901367 2106.215576,1595.906372 
	C2468.818359,1596.021606 2831.421387,1596.016602 3194.024170,1595.923584 
	C3209.535400,1595.919678 3224.338867,1599.313354 3239.133545,1603.209106 
	C3242.407471,1604.070923 3245.379150,1605.509277 3247.385742,1610.155029 
	C3240.453857,1616.384644 3232.232422,1613.860840 3224.485107,1613.865356 
	C2847.028809,1614.084351 2469.572754,1613.853271 2090.168213,1614.489990 
	C2086.451904,1615.392456 2084.683838,1615.906250 2081.528320,1616.330566 
	C2056.025635,1622.762207 2039.766968,1638.146362 2029.377930,1660.536133 
	C2001.320923,1721.003296 1980.081909,1784.175659 1955.790161,1846.127563 
	C1893.831421,2004.142212 1833.361206,2162.737549 1771.908081,2320.950195 
	C1707.801270,2485.994629 1644.423096,2651.321533 1580.070190,2816.270020 
	C1554.909546,2880.761475 1530.467407,2945.529053 1505.226318,3009.988525 
	C1502.563721,3016.788330 1500.319824,3023.791992 1498.611816,3030.928467 
	C1493.004272,3054.359619 1501.908569,3073.253662 1523.538452,3083.706543 
	C1535.125000,3089.305664 1547.308594,3091.763672 1560.245239,3091.763428 
	C1926.679077,3091.750244 2293.113037,3091.805664 2659.546875,3091.584473 
	C2678.983887,3091.572754 2697.738525,3087.775391 2714.777344,3073.971924 
	C2726.532715,3068.584473 2732.379150,3060.721191 2736.072754,3050.002441 
	C2742.064941,3032.612793 2749.288330,3015.647705 2756.688965,2997.156006 
	C2757.699951,2995.037598 2758.013916,2994.266602 2759.021973,2992.458496 
	C2762.539795,2983.031738 2765.363037,2974.642334 2769.026855,2965.000000 
	C2770.005127,2963.032959 2770.142822,2962.318604 2771.176025,2960.981689 
	C2776.425293,2941.485840 2785.652832,2924.408447 2792.079346,2906.288818 
	C2798.301025,2888.746826 2805.623291,2871.594971 2813.331055,2852.967285 
	C2814.240967,2850.939697 2814.282471,2850.217041 2815.168457,2848.812012 
	C2820.996826,2827.622803 2830.431641,2808.741211 2837.702393,2789.072021 
	C2844.990479,2769.356689 2853.025635,2749.917480 2861.528076,2728.989258 
	C2862.324707,2726.907471 2862.326660,2726.193604 2863.179199,2724.829102 
z"/>
<path fill="#110DFF" opacity="1.000000" stroke="none" 
	d="
M2424.959961,2195.020020 
	C2421.293457,2203.199707 2418.545898,2210.515381 2414.977051,2219.064453 
	C2413.993164,2221.031494 2413.830566,2221.764893 2412.852051,2223.275879 
	C2412.283936,2230.979004 2408.577637,2236.725098 2406.259277,2242.843018 
	C2398.762695,2262.625000 2391.017578,2282.312988 2382.374268,2303.290039 
	C2381.380371,2304.542725 2381.663330,2306.518799 2380.769531,2306.962891 
	C2378.436279,2312.237793 2376.996826,2317.068115 2374.693848,2323.150391 
	C2373.766846,2325.122070 2373.703369,2325.841797 2372.824219,2327.275391 
	C2370.614014,2332.571533 2369.219238,2337.153320 2367.095215,2342.989746 
	C2366.122559,2345.019287 2365.878906,2345.794189 2364.915283,2347.551270 
	C2358.197021,2371.180664 2347.347412,2392.001465 2338.621582,2415.218750 
	C2337.665283,2417.168701 2337.648438,2417.875244 2336.812012,2419.253906 
	C2335.741455,2421.962891 2335.490723,2423.999756 2334.323242,2427.284424 
	C2333.488770,2429.205078 2333.571289,2429.877441 2332.782959,2431.073730 
	C2330.372070,2436.466309 2328.831787,2441.334961 2326.309570,2447.392334 
	C2325.431885,2449.248047 2325.536377,2449.914551 2324.779541,2451.112793 
	C2322.817627,2456.135010 2321.352051,2460.571533 2320.682617,2465.125244 
	C2318.477539,2480.121338 2326.526855,2492.593506 2340.819580,2497.556641 
	C2347.939453,2500.028809 2355.184082,2499.782715 2362.466309,2499.783691 
	C2426.851074,2499.791016 2491.235840,2499.765869 2555.620605,2499.783203 
	C2561.583252,2499.784668 2567.557617,2499.835449 2573.504150,2500.211670 
	C2576.722412,2500.415283 2577.964844,2502.918213 2577.062744,2505.762207 
	C2575.668457,2510.157471 2573.759521,2514.389160 2572.073975,2518.692383 
	C2561.212402,2546.422607 2550.352539,2574.153564 2538.580078,2603.170654 
	C2537.655029,2605.169678 2537.641846,2605.882568 2536.818359,2607.293457 
	C2536.585938,2613.209961 2532.851074,2617.122314 2530.997559,2623.070801 
	C2530.012451,2625.025146 2529.841064,2625.759033 2528.854492,2627.276855 
	C2520.600830,2652.765869 2510.671631,2676.549805 2501.233154,2700.515381 
	C2500.505127,2702.363770 2499.848877,2704.240479 2498.166016,2707.372559 
	C2497.172852,2708.641113 2497.648926,2710.568604 2496.763672,2711.017334 
	C2493.972900,2722.180908 2489.028320,2731.760254 2483.798828,2742.736084 
	C2466.919678,2748.559082 2450.524170,2744.765381 2432.625488,2745.924805 
	C2418.145508,2730.546875 2438.065674,2732.825684 2442.744629,2725.110840 
	C2445.990967,2721.704346 2447.982178,2719.408691 2450.986572,2716.556641 
	C2474.975586,2667.551025 2493.613525,2617.411377 2511.135010,2565.249512 
	C2512.000000,2564.000000 2512.024414,2562.021973 2512.026855,2561.032959 
	C2518.223145,2542.418457 2516.931152,2540.104980 2497.297363,2535.997314 
	C2446.673340,2535.982910 2397.356689,2535.937500 2348.039795,2535.989746 
	C2331.724854,2536.007080 2316.364502,2533.030518 2302.790283,2523.264160 
	C2288.304688,2512.842041 2281.301514,2498.873291 2279.840088,2481.036377 
	C2277.963623,2458.130859 2286.119629,2437.662598 2293.879883,2417.234131 
	C2314.438965,2363.115723 2335.784180,2309.295166 2356.866943,2255.375732 
	C2362.198242,2241.740723 2367.405762,2228.043701 2373.219238,2214.612793 
	C2383.591309,2190.651123 2400.452393,2174.030273 2426.769043,2168.144043 
	C2437.854736,2165.664551 2448.837158,2163.902344 2460.298096,2163.913574 
	C2634.906494,2164.083252 2809.514648,2164.106934 2984.122803,2163.868896 
	C2996.314941,2163.852295 3007.926025,2165.979980 3019.566406,2168.761230 
	C3024.136230,2169.852783 3028.423584,2171.758789 3031.635254,2177.321289 
	C3026.262207,2185.308594 3018.428467,2181.798096 3011.621338,2181.811035 
	C2822.177246,2182.167236 2632.732666,2181.740234 2441.417725,2182.835938 
	C2439.546875,2183.486084 2437.834717,2184.149658 2436.916748,2184.173584 
	C2435.385254,2184.759033 2434.771484,2185.320312 2433.075195,2186.500488 
	C2431.992676,2187.119629 2431.799072,2188.026367 2431.340332,2187.960205 
	C2430.580322,2188.601807 2430.279053,2189.309814 2428.914551,2190.465576 
	C2427.851074,2190.913574 2427.992432,2191.805176 2427.546875,2191.876953 
	C2426.693604,2192.684326 2426.286133,2193.420166 2424.959961,2195.020020 
z"/>
<path fill="#0403FF" opacity="1.000000" stroke="none" 
	d="
M2442.353760,2724.289551 
	C2443.337402,2728.189453 2441.124756,2731.187012 2437.368408,2733.230713 
	C2433.919189,2735.107666 2430.320557,2736.919189 2428.108643,2742.037598 
	C2421.172607,2748.534668 2413.541748,2745.843994 2406.516357,2745.855225 
	C2284.003174,2746.049072 2161.489502,2745.994629 2037.165161,2745.994629 
	C2019.178589,2743.900146 2007.986206,2736.046631 2004.242676,2717.637207 
	C2004.527710,2705.763184 2010.485229,2697.343506 2013.632568,2688.001709 
	C2020.595825,2667.333008 2029.172974,2647.208252 2037.938599,2625.535400 
	C2038.563354,2623.401855 2038.341431,2622.594727 2039.212524,2621.168945 
	C2047.552246,2601.552246 2054.800049,2582.554443 2062.044678,2563.555664 
	C2063.677246,2559.274170 2065.299805,2554.988770 2067.509521,2549.384277 
	C2070.902344,2545.265137 2069.586670,2541.511230 2071.359131,2537.401855 
	C2073.559570,2533.246826 2074.768066,2529.933594 2076.530029,2525.415527 
	C2077.836182,2522.127686 2077.960693,2519.900391 2079.392822,2517.061279 
	C2082.855225,2509.038818 2085.484619,2501.737061 2088.801758,2493.139160 
	C2089.767822,2491.061279 2090.046387,2490.280029 2091.059570,2488.494141 
	C2091.234619,2482.433350 2094.827881,2478.744141 2096.812988,2473.067383 
	C2097.780518,2471.030762 2098.070068,2470.229248 2099.033691,2468.341553 
	C2099.707275,2467.255127 2099.584717,2465.432373 2100.106445,2464.682129 
	C2101.954346,2462.080811 2101.949707,2459.817871 2103.293213,2456.944824 
	C2105.061035,2452.841797 2106.079102,2449.533691 2107.776367,2445.093262 
	C2109.530029,2442.660889 2110.484619,2441.278564 2111.192139,2438.556641 
	C2117.748047,2414.383789 2127.614014,2392.655518 2136.842041,2369.098145 
	C2137.874268,2367.036865 2138.100830,2366.265869 2139.091797,2364.562744 
	C2139.828125,2362.956543 2139.799805,2362.282227 2140.324707,2360.760254 
	C2141.591797,2358.669434 2142.343994,2357.449951 2143.256104,2355.188477 
	C2144.517090,2343.994385 2150.565918,2335.559814 2154.021484,2324.658691 
	C2154.736328,2322.753906 2154.528809,2322.103027 2155.226562,2320.972656 
	C2157.718506,2315.618164 2159.305420,2310.743408 2161.863037,2304.656982 
	C2162.666504,2302.775391 2162.499023,2302.105957 2163.215820,2300.897461 
	C2169.158203,2286.407715 2174.217041,2272.457031 2179.999023,2257.219727 
	C2181.500732,2254.751953 2182.280762,2253.572510 2183.226562,2251.346191 
	C2186.191650,2235.144287 2193.594482,2221.588623 2198.470215,2207.149658 
	C2202.719238,2194.567383 2207.882324,2182.293701 2213.691406,2168.686035 
	C2214.603271,2166.813965 2214.465088,2166.139160 2215.224609,2164.953369 
	C2224.198486,2139.349365 2233.616699,2114.763428 2244.712158,2089.205078 
	C2245.722656,2087.014648 2246.063232,2086.177246 2246.985107,2084.114502 
	C2248.602783,2075.505859 2251.945801,2068.958496 2255.746338,2061.136719 
	C2257.530762,2058.669434 2258.469482,2057.295898 2259.196045,2054.604980 
	C2261.631348,2039.620972 2268.547363,2027.427856 2272.916748,2014.330322 
	C2275.207764,2007.463379 2278.033203,2000.774536 2281.614746,1992.772217 
	C2282.517578,1990.849487 2282.422852,1990.159546 2283.214355,1988.917236 
	C2283.902832,1984.663574 2284.799316,1981.273804 2287.746582,1977.146851 
	C2303.671875,1957.742310 2324.010742,1955.273804 2346.223877,1955.294678 
	C2594.018311,1955.527344 2841.813477,1955.348877 3089.607666,1955.662476 
	C3116.771484,1955.696777 3140.274902,1947.554321 3162.923584,1930.295166 
	C3164.110352,1928.791260 3164.289307,1927.965210 3164.701416,1928.058960 
	C3165.399170,1927.445679 3165.685059,1926.738647 3167.072266,1925.721191 
	C3168.173340,1925.410645 3168.251709,1924.355347 3168.771484,1924.255859 
	C3169.556641,1923.400757 3169.822266,1922.645386 3171.107910,1921.255859 
	C3173.102539,1918.368286 3174.076660,1916.114868 3175.835449,1912.895264 
	C3177.949219,1910.087891 3177.949951,1907.832764 3179.306396,1904.986816 
	C3181.279053,1890.004150 3190.434814,1878.665161 3194.128418,1865.345947 
	C3194.829346,1862.817993 3196.077637,1860.441650 3198.019531,1856.694214 
	C3198.750732,1854.745728 3198.535889,1854.098267 3199.227051,1852.975586 
	C3201.594238,1847.727905 3203.055664,1842.955811 3205.359375,1836.930420 
	C3206.245361,1834.942261 3206.288818,1834.207153 3207.165527,1832.746826 
	C3207.303955,1826.751831 3211.467773,1823.028931 3213.136719,1817.017090 
	C3214.043457,1814.997437 3214.190430,1814.230591 3215.110352,1812.583618 
	C3216.704102,1803.997925 3220.181885,1797.224487 3224.126465,1789.131836 
	C3225.580566,1786.684326 3226.325195,1785.482544 3227.251465,1783.255859 
	C3231.323486,1765.355957 3239.199219,1749.954834 3246.135254,1732.568359 
	C3246.859375,1730.664795 3246.593994,1730.038452 3247.226074,1728.926392 
	C3247.641846,1723.077515 3251.468506,1719.022339 3253.366455,1712.886963 
	C3254.277832,1710.947632 3254.296631,1710.232056 3255.195801,1708.900879 
	C3255.872803,1704.541504 3257.288818,1701.289917 3259.887695,1697.051758 
	C3261.964600,1694.068604 3261.949951,1691.788208 3263.285156,1688.877197 
	C3265.914307,1681.960815 3267.813721,1675.867310 3270.724365,1668.844238 
	C3275.929688,1668.923706 3279.681152,1670.825562 3278.810059,1675.817017 
	C3277.669922,1682.349365 3276.375244,1688.990234 3274.018799,1695.153198 
	C3257.860840,1737.412842 3241.436279,1779.570801 3225.040039,1821.739136 
	C3213.948975,1850.263062 3202.809326,1878.768433 3191.602295,1907.247192 
	C3185.469482,1922.831543 3177.871094,1937.286499 3165.238525,1949.059692 
	C3149.344727,1963.872559 3131.157959,1971.927368 3109.512451,1971.975098 
	C3068.200928,1972.066162 3026.888916,1972.004517 2985.577148,1972.004639 
	C2774.354248,1972.005493 2563.130615,1972.195435 2351.909180,1971.643677 
	C2335.132568,1971.599976 2320.782959,1976.313599 2306.253906,1982.961426 
	C2298.929199,1986.312744 2295.436768,1992.440308 2292.773682,1999.465942 
	C2285.934814,2017.507446 2279.134033,2035.564331 2272.127686,2053.540771 
	C2251.591309,2106.233398 2230.855469,2158.848389 2210.418701,2211.579834 
	C2201.282227,2235.154297 2192.810791,2258.985596 2183.793701,2282.607422 
	C2169.557129,2319.903564 2155.076172,2357.105957 2140.771240,2394.375732 
	C2124.559082,2436.614746 2108.494385,2478.909912 2092.242432,2521.133545 
	C2075.034668,2565.840088 2057.668945,2610.486084 2040.401733,2655.169678 
	C2034.885864,2669.443848 2029.434570,2683.743408 2024.024048,2698.058105 
	C2022.847778,2701.169434 2021.671753,2704.333252 2021.009277,2707.577881 
	C2017.891235,2722.849854 2024.696777,2728.393311 2037.343384,2727.964844 
	C2040.670654,2727.852051 2044.005737,2727.988281 2047.337280,2727.988281 
	C2169.273682,2727.990479 2291.209961,2727.975586 2413.146240,2728.019287 
	C2422.501953,2728.022705 2431.814941,2728.094971 2442.353760,2724.289551 
z"/>
<path fill="#0E0EFF" opacity="1.000000" stroke="none" 
	d="
M2090.060547,1615.112061 
	C2091.586914,1612.326660 2095.509277,1611.839722 2099.559570,1611.829712 
	C2105.551758,1611.814819 2111.543945,1611.787476 2117.536133,1611.787476 
	C2484.396484,1611.786255 2851.256836,1611.788086 3218.117188,1611.784546 
	C3226.772461,1611.784546 3235.427979,1611.728271 3245.937988,1611.606323 
	C3247.792725,1611.514282 3248.071777,1613.067139 3248.064697,1613.855957 
	C3240.751953,1614.873779 3233.446045,1615.302490 3226.140381,1615.303101 
	C2848.060547,1615.340210 2469.980957,1615.340942 2090.060547,1615.112061 
z"/>
<path fill="#395DFF" opacity="1.000000" stroke="none" 
	d="
M2441.472656,2183.549805 
	C2443.165283,2179.992920 2447.723877,2179.221436 2452.467773,2179.141357 
	C2458.465820,2179.040283 2464.466309,2179.032959 2470.465576,2179.032715 
	C2647.121094,2179.028320 2823.776611,2179.031982 3000.432129,2179.022705 
	C3009.764404,2179.022217 3019.096436,2178.923584 3030.312012,2178.729492 
	C3034.492188,2179.358643 3036.788818,2180.129150 3039.827148,2181.878418 
	C3029.954102,2182.421143 3019.339355,2181.609131 3008.724365,2181.604980 
	C2829.542236,2181.534180 2650.360352,2181.560059 2471.178223,2181.581543 
	C2461.874268,2181.582520 2452.510498,2180.924072 2441.472656,2183.549805 
z"/>
<path fill="#0403FF" opacity="1.000000" stroke="none" 
	d="
M2510.794922,2564.770752 
	C2512.696045,2572.171631 2510.463379,2579.841309 2507.578125,2587.282715 
	C2491.998535,2627.467041 2476.275879,2667.595459 2460.648682,2707.761475 
	C2459.415771,2710.929932 2458.047607,2713.849121 2453.343262,2715.628906 
	C2453.472168,2710.889404 2454.579834,2705.639404 2456.476807,2700.691895 
	C2466.481445,2674.599121 2476.851807,2648.646240 2486.759766,2622.517578 
	C2493.117188,2605.751709 2498.811768,2588.735107 2505.024902,2571.913086 
	C2505.897949,2569.549561 2508.036621,2567.653809 2510.794922,2564.770752 
z"/>
<path fill="#0403FF" opacity="1.000000" stroke="none" 
	d="
M2497.005859,2536.948242 
	C2506.456543,2531.638428 2511.120117,2532.275146 2516.160645,2538.744141 
	C2521.118652,2545.107422 2520.745361,2550.571289 2513.396973,2559.604248 
	C2513.386475,2548.851318 2509.085938,2541.238770 2497.005859,2536.948242 
z"/>
<path fill="#0E0EFF" opacity="1.000000" stroke="none" 
	d="
M3058.142090,2227.188477 
	C3056.958496,2226.529785 3057.100342,2225.266602 3058.745117,2223.509033 
	C3059.713867,2224.218506 3059.453613,2225.408203 3058.142090,2227.188477 
z"/>
<path fill="#E41AFF" opacity="1.000000" stroke="none" 
	d="
M776.835205,1980.336670 
	C753.716675,1969.634155 744.187256,1952.498047 743.758850,1928.743774 
	C743.344299,1905.753784 746.587280,1883.990356 755.608765,1862.600342 
	C775.002197,1816.617676 793.294128,1770.170532 812.057373,1723.921875 
	C823.063904,1696.792236 834.485718,1669.823364 845.005737,1642.506836 
	C852.024475,1624.281982 864.759338,1610.650635 879.730713,1599.611084 
	C889.750427,1592.222778 902.712341,1589.304810 915.472290,1588.161133 
	C920.103333,1587.745972 924.796509,1587.989502 929.461304,1587.989502 
	C1246.021240,1587.987427 1562.581177,1588.022705 1879.141113,1587.886475 
	C1892.687988,1587.880615 1905.509399,1589.688721 1918.038940,1595.042480 
	C1940.192993,1604.509155 1949.394409,1622.196167 1952.033813,1644.973145 
	C1954.999146,1670.561646 1946.216431,1693.611572 1937.463257,1716.647461 
	C1918.316284,1767.036011 1898.881714,1817.315674 1879.463257,1867.600586 
	C1857.886597,1923.473633 1836.084351,1979.259644 1814.594727,2035.165894 
	C1798.835571,2076.164062 1783.545532,2117.342285 1767.820679,2158.353516 
	C1750.904297,2202.472656 1733.654907,2246.464355 1716.680054,2290.561279 
	C1700.422607,2332.793945 1684.383911,2375.111084 1668.147705,2417.352295 
	C1657.642334,2444.684082 1646.876587,2471.915771 1636.365234,2499.245117 
	C1620.359009,2540.862061 1604.505005,2582.537354 1588.523560,2624.163818 
	C1578.028687,2651.499268 1567.376221,2678.773926 1556.877441,2706.108154 
	C1540.651367,2748.353760 1524.579956,2790.659180 1508.285645,2832.878418 
	C1495.106934,2867.024414 1481.583130,2901.037598 1468.419556,2935.189453 
	C1455.255127,2969.343262 1442.228882,3003.551270 1429.376099,3037.823486 
	C1422.590820,3055.916504 1415.415283,3073.793457 1406.599854,3091.029785 
	C1398.896606,3106.091553 1387.068359,3116.369141 1371.425781,3121.804443 
	C1360.803955,3125.495361 1349.813843,3128.096191 1338.245239,3128.074463 
	C1248.942261,3127.906738 1159.638916,3128.051514 1070.335938,3127.918457 
	C1054.149292,3127.894287 1039.165771,3123.947021 1024.793213,3115.522461 
	C1008.502808,3105.973389 1002.036194,3091.425049 1000.438110,3074.365479 
	C998.825500,3057.151611 999.473999,3039.962402 1006.115723,3023.250977 
	C1019.140808,2990.478271 1031.298218,2957.360596 1043.838745,2924.395020 
	C1056.142822,2892.051270 1068.456299,2859.711182 1080.802490,2827.383545 
	C1096.473145,2786.350830 1112.203491,2745.340576 1127.865601,2704.304688 
	C1140.442261,2671.352539 1152.968018,2638.380615 1165.494019,2605.409180 
	C1178.257202,2571.813477 1190.949463,2538.190674 1203.752075,2504.610107 
	C1219.636719,2462.945068 1235.593140,2421.307129 1251.537231,2379.665039 
	C1266.053101,2341.752930 1280.622070,2303.860840 1295.113647,2265.939453 
	C1304.853882,2240.451904 1314.419556,2214.896973 1324.207031,2189.427734 
	C1338.769531,2151.532959 1353.454834,2113.685791 1368.095703,2075.821045 
	C1376.016235,2055.336914 1383.998413,2034.876221 1391.842285,2014.362671 
	C1393.263672,2010.645142 1394.493896,2006.786011 1395.209351,2002.881714 
	C1396.614136,1995.215942 1392.712524,1989.503174 1385.046509,1988.647095 
	C1378.454468,1987.911011 1371.749390,1988.037476 1365.094360,1988.036255 
	C1184.488647,1988.002197 1003.882812,1987.929688 823.277222,1988.120728 
	C807.750854,1988.137207 792.772766,1986.427368 776.835205,1980.336670 
z"/>
<path fill="#E319FF" opacity="1.000000" stroke="none" 
	d="
M3394.770508,1406.402588 
	C3387.314941,1425.880005 3380.600830,1443.979980 3373.505371,1461.929077 
	C3367.636475,1476.774902 3362.197998,1491.889771 3354.990234,1506.083740 
	C3344.189209,1527.354126 3327.388672,1540.971680 3302.773438,1544.992188 
	C3290.858398,1546.938232 3279.132324,1548.260620 3267.130615,1548.260132 
	C2512.596924,1548.235107 1758.063477,1548.229614 1003.529846,1548.314087 
	C991.469299,1548.315430 979.750488,1547.198730 967.947693,1544.471802 
	C954.429504,1541.348511 943.694519,1534.901367 934.100220,1524.859375 
	C925.249878,1515.596313 920.555908,1505.162842 919.909119,1492.837280 
	C918.714600,1470.072388 921.068970,1448.184082 929.801941,1426.395142 
	C950.349854,1375.128052 968.978027,1323.093750 988.583618,1271.446045 
	C997.323059,1248.423340 1006.131348,1225.409912 1015.675415,1202.714844 
	C1023.947021,1183.045654 1037.371582,1167.509521 1057.499512,1159.236328 
	C1069.198486,1154.427856 1081.854126,1152.770020 1094.468750,1151.835205 
	C1099.772827,1151.442139 1105.128662,1151.739014 1110.461060,1151.739014 
	C1862.328491,1151.737793 2614.195801,1151.761597 3366.063232,1151.586426 
	C3382.941406,1151.582520 3399.016113,1154.186401 3415.192627,1158.664551 
	C3438.000000,1164.978394 3453.743164,1184.646729 3455.977051,1210.003296 
	C3457.628174,1228.743042 3455.250244,1246.993896 3448.104248,1264.807617 
	C3437.202881,1291.983154 3427.433350,1319.612427 3417.152588,1347.037354 
	C3409.910645,1366.354980 3402.617188,1385.653076 3394.770508,1406.402588 
z"/>
<path fill="#0F0EFF" opacity="1.000000" stroke="none" 
	d="
M2888.000977,1673.336426 
	C2985.986572,1673.336426 3081.972412,1673.335938 3177.958008,1673.337402 
	C3183.290527,1673.337524 3188.626953,1673.228271 3193.954590,1673.391968 
	C3202.182861,1673.644775 3203.559814,1675.280640 3200.769531,1682.690063 
	C3191.864990,1706.337036 3182.750488,1729.905640 3173.614990,1753.464966 
	C3159.418701,1790.074219 3144.946533,1826.578247 3131.045654,1863.298950 
	C3128.030029,1871.265381 3124.089355,1875.664551 3115.086426,1874.670532 
	C3109.818359,1874.088745 3104.433105,1874.572510 3099.100586,1874.572632 
	C2834.473389,1874.573120 2569.846436,1874.572021 2305.219238,1874.578613 
	C2298.554443,1874.578857 2291.888916,1874.751465 2285.225098,1874.690430 
	C2268.062500,1874.533569 2258.231934,1883.960571 2252.743408,1899.240967 
	C2250.274414,1906.114014 2247.703369,1912.951538 2245.092285,1919.772217 
	C2211.793701,2006.758423 2178.551025,2093.766113 2145.148193,2180.712402 
	C2114.133057,2261.443604 2082.887695,2342.086426 2051.844971,2422.807373 
	C2019.847778,2506.009033 1988.002441,2589.269287 1956.027344,2672.479492 
	C1945.529907,2699.798096 1934.730591,2727.000732 1924.309814,2754.348145 
	C1921.952759,2760.533691 1919.773315,2766.996826 1918.947510,2773.513916 
	C1916.971802,2789.108154 1925.413940,2800.575439 1940.480957,2804.825195 
	C1948.354126,2807.046143 1956.306030,2806.763428 1964.285400,2806.765137 
	C2037.607788,2806.781250 2110.930176,2806.774902 2184.252441,2806.774658 
	C2284.904053,2806.774658 2385.555908,2806.791504 2486.207520,2806.735107 
	C2492.849854,2806.731445 2499.538086,2806.560791 2506.123535,2805.779053 
	C2518.414307,2804.319824 2526.832520,2797.719238 2531.392334,2785.979736 
	C2537.890869,2769.248047 2544.913818,2752.720459 2551.426025,2735.993896 
	C2575.080566,2675.235352 2598.600342,2614.424072 2622.203369,2553.645264 
	C2630.631592,2531.941650 2639.233154,2510.304932 2647.568848,2488.566406 
	C2649.466309,2483.618652 2651.234863,2478.463623 2651.953369,2473.250977 
	C2654.380371,2455.642334 2643.072754,2441.677002 2625.432129,2440.133057 
	C2621.470947,2439.786377 2617.444824,2440.221191 2613.448730,2440.222168 
	C2545.458984,2440.235596 2477.468994,2440.264648 2409.479248,2440.178467 
	C2405.018066,2440.172852 2400.257324,2441.445801 2396.133789,2438.484375 
	C2394.361572,2433.444336 2397.180908,2429.391113 2398.837158,2425.143799 
	C2420.583008,2369.377930 2442.331787,2313.612793 2464.142090,2257.872070 
	C2471.861084,2238.143799 2468.791260,2240.386963 2489.590576,2240.379639 
	C2649.566650,2240.324219 2809.542725,2240.348877 2969.518799,2240.348633 
	C2974.777344,2240.348389 2980.035889,2240.348633 2984.781250,2240.348633 
	C2987.327637,2245.579102 2985.040039,2249.378174 2983.685059,2252.876709 
	C2962.314209,2308.058838 2940.802734,2363.187256 2919.181396,2418.271729 
	C2893.417725,2483.910400 2867.375244,2549.439697 2841.718994,2615.120117 
	C2815.338623,2682.655273 2789.392578,2750.360352 2763.043945,2817.907959 
	C2738.624268,2880.510254 2713.719727,2942.924805 2689.590088,3005.637939 
	C2686.350342,3014.058350 2682.116211,3017.263184 2673.615967,3016.330322 
	C2669.664062,3015.896729 2665.625244,3016.259521 2661.625732,3016.259521 
	C2313.677734,3016.259766 1965.729858,3016.259521 1617.781860,3016.259521 
	C1610.478882,3016.259521 1603.175781,3016.259521 1594.972168,3016.259521 
	C1593.666626,3009.537354 1595.985229,3004.211426 1598.039795,2998.900146 
	C1624.200928,2931.266602 1650.397827,2863.647217 1676.568481,2796.017334 
	C1709.939819,2709.779297 1743.284912,2623.531006 1776.661011,2537.295166 
	C1810.036499,2451.061035 1843.424438,2364.832031 1876.827759,2278.608643 
	C1919.110107,2169.466553 1961.444702,2060.344482 2003.697388,1951.190918 
	C2032.508423,1876.761719 2061.211426,1802.290771 2089.978516,1727.844604 
	C2095.732178,1712.954468 2101.956055,1698.230469 2107.186279,1683.160278 
	C2109.867432,1675.435791 2114.481201,1672.827393 2122.121582,1673.283447 
	C2128.098877,1673.640259 2134.115479,1673.337158 2140.114502,1673.337158 
	C2388.743164,1673.336182 2637.372070,1673.336426 2888.000977,1673.336426 
z"/>
<path fill="#0E0EFF" opacity="1.000000" stroke="none" 
	d="
M2714.344238,3072.679688 
	C2716.353516,3080.275635 2713.132568,3085.353516 2706.408447,3088.796143 
	C2693.203613,3095.555664 2679.742432,3100.553711 2664.498291,3100.107422 
	C2647.854248,3099.620117 2631.184814,3099.999756 2614.526611,3099.999756 
	C2264.036621,3100.000000 1913.546753,3099.956543 1563.056885,3100.142822 
	C1547.435913,3100.151123 1532.906372,3097.659424 1518.485352,3091.467041 
	C1497.045654,3082.260986 1481.453003,3055.342041 1490.204224,3028.095947 
	C1496.508789,3008.467041 1503.681396,2989.085449 1511.232056,2969.894775 
	C1527.799194,2927.787842 1544.283691,2885.664307 1559.859619,2843.168213 
	C1572.674683,2808.204590 1587.247437,2773.887939 1600.842285,2739.206543 
	C1613.954834,2705.755615 1627.203369,2672.348877 1639.681519,2638.659668 
	C1654.472900,2598.724854 1670.362671,2559.207031 1685.444458,2519.387695 
	C1696.499023,2490.200928 1708.149536,2461.130859 1719.800415,2432.116943 
	C1730.211182,2406.191162 1739.458984,2379.800049 1749.441284,2353.699219 
	C1753.953979,2341.899902 1759.171631,2330.371826 1763.780029,2318.607422 
	C1781.981201,2272.144531 1800.301758,2225.726318 1818.128662,2179.119629 
	C1835.006104,2134.995117 1851.136230,2090.585205 1867.968384,2046.442993 
	C1875.313232,2027.181152 1883.893188,2008.392822 1891.368774,1989.177979 
	C1901.741699,1962.515869 1911.400391,1935.576172 1921.735474,1908.898926 
	C1934.230957,1876.644775 1947.283203,1844.606323 1959.775391,1812.350830 
	C1969.867310,1786.293213 1979.158203,1759.923096 1989.402954,1733.927368 
	C2000.620361,1705.463867 2011.437012,1676.810913 2025.247070,1649.433472 
	C2028.874146,1642.243042 2032.938843,1635.280762 2038.702759,1629.717651 
	C2049.254883,1619.533081 2061.833252,1614.208984 2078.484619,1616.113281 
	C2069.137695,1622.591187 2063.583984,1632.686279 2059.135010,1644.263550 
	C2020.955933,1743.615845 1982.454102,1842.844360 1944.028809,1942.102173 
	C1911.369263,2026.466431 1878.715210,2110.832520 1846.001099,2195.175781 
	C1807.988403,2293.179443 1769.832275,2391.127441 1731.889038,2489.158203 
	C1698.502319,2575.416504 1665.371826,2661.773926 1632.036621,2748.052246 
	C1606.868164,2813.193604 1581.549194,2878.276367 1556.310059,2943.390381 
	C1545.981201,2970.037354 1535.443726,2996.607422 1525.501709,3023.398193 
	C1521.793945,3033.389648 1519.620483,3043.790039 1523.574707,3054.613037 
	C1526.784546,3063.398438 1532.286499,3069.506592 1541.278564,3071.911865 
	C1546.388672,3073.278564 1551.725464,3073.985352 1557.007690,3074.464111 
	C1561.636841,3074.883789 1566.332397,3074.579590 1570.998535,3074.579834 
	C1943.626709,3074.599365 2316.254883,3074.612305 2688.883057,3074.669678 
	C2696.903809,3074.670898 2704.871582,3074.575439 2714.344238,3072.679688 
z"/>
<path fill="#110DFF" opacity="1.000000" stroke="none" 
	d="
M3162.489746,1929.197266 
	C3164.136719,1940.451294 3156.840820,1946.816284 3147.419922,1951.411133 
	C3141.452637,1954.321533 3135.116699,1956.483521 3129.187988,1959.463013 
	C3122.445801,1962.851196 3115.447754,1964.241699 3107.976807,1964.012451 
	C3102.656738,1963.849243 3097.327393,1963.989746 3092.002197,1963.989746 
	C2844.379883,1963.990234 2596.757568,1964.057861 2349.135498,1963.846191 
	C2331.598389,1963.831177 2314.610107,1964.270264 2299.196045,1974.010620 
	C2297.080322,1975.347412 2294.098633,1975.313965 2290.015625,1975.979492 
	C2290.751465,1962.807739 2297.612305,1951.175293 2301.624756,1938.543701 
	C2302.645996,1935.328735 2305.752930,1933.498535 2309.509766,1933.522217 
	C2314.175537,1933.551636 2318.842041,1933.444580 2323.508057,1933.444824 
	C2592.157227,1933.461426 2860.806152,1933.486206 3129.455322,1933.492554 
	C3140.076904,1933.492920 3150.827148,1934.359985 3162.489746,1929.197266 
z"/>
<path fill="#1314FF" opacity="1.000000" stroke="none" 
	d="
M2026.650879,2742.365234 
	C2031.634521,2743.451416 2034.962891,2743.674805 2038.291138,2743.674072 
	C2166.855713,2743.648926 2295.420166,2743.603271 2425.821289,2743.415039 
	C2444.896484,2743.484131 2462.134766,2743.698730 2481.166016,2743.919434 
	C2481.984619,2745.688965 2480.831787,2747.244873 2478.565918,2747.300293 
	C2474.572998,2747.397705 2470.579102,2747.528076 2466.585693,2747.527832 
	C2313.297607,2747.520508 2160.009521,2747.504639 2006.721436,2747.456299 
	C2002.737183,2747.455078 1998.752930,2747.079834 1994.039795,2745.425049 
	C2003.025024,2732.676025 2014.008911,2737.020996 2026.650879,2742.365234 
z"/>
<path fill="#110DFF" opacity="1.000000" stroke="none" 
	d="
M2027.855347,2742.124512 
	C2017.788818,2743.530518 2007.271362,2743.729004 1995.032471,2743.949219 
	C1994.471436,2734.715088 1998.658081,2726.493652 2003.082520,2717.011719 
	C2011.795532,2724.292969 2019.599976,2732.605225 2027.855347,2742.124512 
z"/>
<path fill="#4C3EFF" opacity="1.000000" stroke="none" 
	d="
M2071.453125,2537.469727 
	C2073.137451,2540.184814 2072.442139,2543.456787 2069.060059,2547.191406 
	C2067.362061,2544.440430 2069.047363,2541.432129 2071.453125,2537.469727 
z"/>
<path fill="#110DFF" opacity="1.000000" stroke="none" 
	d="
M3263.210938,1688.847900 
	C3263.426025,1690.163818 3262.836914,1692.273193 3261.437256,1695.156250 
	C3261.219971,1693.833862 3261.813477,1691.737793 3263.210938,1688.847900 
z"/>
<path fill="#110DFF" opacity="1.000000" stroke="none" 
	d="
M2103.221680,2456.915771 
	C2103.443359,2458.235840 2102.843750,2460.321777 2101.436035,2463.169922 
	C2101.218506,2461.848633 2101.809082,2459.765137 2103.221680,2456.915771 
z"/>
<path fill="#4C3EFF" opacity="1.000000" stroke="none" 
	d="
M2079.413818,2517.120117 
	C2079.822266,2518.535645 2079.418457,2520.730713 2078.048828,2523.568359 
	C2077.589355,2522.107178 2078.095459,2520.003418 2079.413818,2517.120117 
z"/>
<path fill="#110DFF" opacity="1.000000" stroke="none" 
	d="
M3179.267578,1904.980713 
	C3179.463379,1906.285034 3178.854248,1908.357910 3177.432617,1911.180054 
	C3177.234131,1909.869263 3177.848389,1907.809204 3179.267578,1904.980713 
z"/>
<path fill="#110DFF" opacity="1.000000" stroke="none" 
	d="
M2098.904297,2467.762207 
	C2099.748291,2468.472900 2099.421875,2469.582275 2098.109131,2471.208008 
	C2096.925537,2470.513428 2097.129150,2469.325684 2098.904297,2467.762207 
z"/>
<path fill="#110DFF" opacity="1.000000" stroke="none" 
	d="
M2090.974121,2487.935547 
	C2091.796875,2488.671387 2091.443848,2489.734619 2090.111816,2491.261230 
	C2088.905029,2490.534180 2089.126465,2489.380615 2090.974121,2487.935547 
z"/>
<path fill="#0E0EFF" opacity="1.000000" stroke="none" 
	d="
M2951.185791,2500.198242 
	C2951.960693,2500.837646 2951.686768,2501.811279 2950.496094,2503.203369 
	C2949.451416,2502.570557 2949.637207,2501.540771 2951.185791,2500.198242 
z"/>
<path fill="#1314FF" opacity="1.000000" stroke="none" 
	d="
M2528.720947,2627.647461 
	C2528.186523,2627.063965 2528.557129,2626.159180 2529.667480,2624.818604 
	C2530.526367,2625.432129 2530.265869,2626.413330 2528.720947,2627.647461 
z"/>
<path fill="#0E0EFF" opacity="1.000000" stroke="none" 
	d="
M2943.327637,2520.441895 
	C2944.040771,2521.030273 2943.790283,2521.900635 2942.752441,2523.155762 
	C2941.647705,2522.580322 2941.781006,2521.641357 2943.327637,2520.441895 
z"/>
<path fill="#0E0EFF" opacity="1.000000" stroke="none" 
	d="
M2935.417725,2540.693359 
	C2936.085205,2541.240723 2935.853271,2542.001221 2934.975098,2543.118652 
	C2933.722412,2542.622314 2933.785645,2541.765625 2935.417725,2540.693359 
z"/>
<path fill="#1314FF" opacity="1.000000" stroke="none" 
	d="
M2324.507812,2451.335449 
	C2324.010010,2450.875488 2324.250732,2450.156250 2324.984131,2449.033936 
	C2325.913574,2449.458252 2325.836914,2450.272949 2324.507812,2451.335449 
z"/>
<path fill="#1314FF" opacity="1.000000" stroke="none" 
	d="
M2536.640869,2607.600586 
	C2536.076172,2607.087402 2536.346191,2606.248291 2537.243164,2604.965576 
	C2538.218994,2605.471924 2538.087402,2606.389648 2536.640869,2607.600586 
z"/>
<path fill="#4C3EFF" opacity="1.000000" stroke="none" 
	d="
M2039.640991,2620.937988 
	C2040.896362,2621.562256 2040.845947,2622.540771 2039.469727,2623.847656 
	C2038.150269,2623.201660 2038.213989,2622.240479 2039.640991,2620.937988 
z"/>
<path fill="#1314FF" opacity="1.000000" stroke="none" 
	d="
M2336.601562,2419.541992 
	C2336.076416,2419.035645 2336.356689,2418.211670 2337.257812,2416.958496 
	C2338.098389,2417.460938 2337.941162,2418.359619 2336.601562,2419.541992 
z"/>
<path fill="#0E0EFF" opacity="1.000000" stroke="none" 
	d="
M2903.122559,2624.237793 
	C2903.868896,2624.953857 2903.504150,2625.922852 2902.205566,2627.270752 
	C2901.039795,2626.531250 2901.286377,2625.478271 2903.122559,2624.237793 
z"/>
<path fill="#0E0EFF" opacity="1.000000" stroke="none" 
	d="
M2895.238037,2644.335449 
	C2895.996094,2644.985352 2895.707520,2645.916504 2894.532715,2647.229492 
	C2893.382812,2646.573975 2893.564209,2645.575684 2895.238037,2644.335449 
z"/>
<path fill="#1314FF" opacity="1.000000" stroke="none" 
	d="
M2496.462891,2711.200684 
	C2495.982422,2710.763916 2496.210205,2710.104492 2496.867188,2709.064453 
	C2497.872314,2709.445801 2497.830811,2710.210449 2496.462891,2711.200684 
z"/>
<path fill="#110DFF" opacity="1.000000" stroke="none" 
	d="
M3247.543457,1728.727051 
	C3248.185303,1729.149536 3248.054199,1729.820801 3247.427490,1730.872803 
	C3246.282715,1730.588501 3246.228760,1729.829224 3247.543457,1728.727051 
z"/>
<path fill="#0E0EFF" opacity="1.000000" stroke="none" 
	d="
M2863.325928,2724.508301 
	C2864.053223,2725.101562 2863.805176,2725.944336 2862.804199,2727.164062 
	C2861.542480,2726.598877 2861.642334,2725.671143 2863.325928,2724.508301 
z"/>
<path fill="#0E0EFF" opacity="1.000000" stroke="none" 
	d="
M2815.322021,2848.479004 
	C2816.043213,2849.089355 2815.780029,2849.960449 2814.711670,2851.202637 
	C2813.586182,2850.602783 2813.729980,2849.657959 2815.322021,2848.479004 
z"/>
<path fill="#0E0EFF" opacity="1.000000" stroke="none" 
	d="
M2771.356445,2960.655762 
	C2772.019043,2961.339600 2771.668213,2962.198486 2770.443359,2963.341309 
	C2769.438232,2962.625488 2769.696045,2961.694092 2771.356445,2960.655762 
z"/>
<path fill="#0E0EFF" opacity="1.000000" stroke="none" 
	d="
M2758.894775,2991.871094 
	C2759.703613,2992.608398 2759.340820,2993.676758 2758.007080,2995.217285 
	C2756.837646,2994.492920 2757.066650,2993.330322 2758.894775,2991.871094 
z"/>
<path fill="#110DFF" opacity="1.000000" stroke="none" 
	d="
M3255.411377,1708.616211 
	C3256.084717,1709.212280 3255.813721,1710.048340 3254.760742,1711.228271 
	C3253.723389,1710.632690 3253.885986,1709.727295 3255.411377,1708.616211 
z"/>
<path fill="#110DFF" opacity="1.000000" stroke="none" 
	d="
M3171.350586,1920.924316 
	C3171.938721,1921.699097 3171.438721,1922.604736 3169.959473,1923.747559 
	C3169.152344,1922.932129 3169.579834,1921.955566 3171.350586,1920.924316 
z"/>
<path fill="#110DFF" opacity="1.000000" stroke="none" 
	d="
M3167.423340,1925.540527 
	C3167.815430,1926.323853 3167.226807,1927.049683 3165.760254,1927.870361 
	C3165.175293,1927.037109 3165.695312,1926.209717 3167.423340,1925.540527 
z"/>
<path fill="#110DFF" opacity="1.000000" stroke="none" 
	d="
M3199.514648,1852.769653 
	C3200.165283,1853.235107 3199.999268,1853.922119 3199.300293,1854.977173 
	C3198.083740,1854.634277 3198.060547,1853.849609 3199.514648,1852.769653 
z"/>
<path fill="#110DFF" opacity="1.000000" stroke="none" 
	d="
M2283.479004,1988.678955 
	C2284.124512,1989.202271 2283.907715,1989.972046 2283.031738,1991.106689 
	C2281.985596,1990.622559 2282.067383,1989.773804 2283.479004,1988.678955 
z"/>
<path fill="#110DFF" opacity="1.000000" stroke="none" 
	d="
M2258.109619,2054.183105 
	C2258.727295,2054.927002 2258.365723,2056.494629 2257.237305,2059.010742 
	C2256.690430,2058.308350 2256.910400,2056.657471 2258.109619,2054.183105 
z"/>
<path fill="#110DFF" opacity="1.000000" stroke="none" 
	d="
M2246.732910,2083.457520 
	C2247.650879,2084.183350 2247.343262,2085.376221 2246.012695,2087.159912 
	C2245.554688,2086.576660 2245.727295,2085.301025 2246.732910,2083.457520 
z"/>
<path fill="#110DFF" opacity="1.000000" stroke="none" 
	d="
M2215.528320,2164.742188 
	C2216.145508,2165.238281 2215.944580,2165.973145 2215.130615,2167.067383 
	C2214.145020,2166.621338 2214.209229,2165.805908 2215.528320,2164.742188 
z"/>
<path fill="#110DFF" opacity="1.000000" stroke="none" 
	d="
M3207.316650,1832.406006 
	C3208.059326,1833.008545 3207.808350,1833.908691 3206.723877,1835.199707 
	C3205.614746,1834.605591 3205.758789,1833.643188 3207.316650,1832.406006 
z"/>
<path fill="#1314FF" opacity="1.000000" stroke="none" 
	d="
M2432.878418,2186.997803 
	C2432.611328,2186.145264 2433.424561,2185.376709 2435.215576,2184.505859 
	C2435.649414,2185.420166 2434.904785,2186.312988 2432.878418,2186.997803 
z"/>
<path fill="#1314FF" opacity="1.000000" stroke="none" 
	d="
M2428.569824,2190.658691 
	C2428.267578,2190.014648 2428.864502,2189.257568 2430.261475,2188.268555 
	C2430.723389,2188.967529 2430.192627,2189.804199 2428.569824,2190.658691 
z"/>
<path fill="#1314FF" opacity="1.000000" stroke="none" 
	d="
M2424.857910,2195.502441 
	C2424.397949,2194.788818 2424.978516,2193.829102 2426.442139,2192.476807 
	C2427.192871,2193.261475 2426.717285,2194.318848 2424.857910,2195.502441 
z"/>
<path fill="#1314FF" opacity="1.000000" stroke="none" 
	d="
M2412.712891,2223.641113 
	C2412.174805,2223.060791 2412.538574,2222.158936 2413.641846,2220.822754 
	C2414.499023,2221.431641 2414.243652,2222.408447 2412.712891,2223.641113 
z"/>
<path fill="#110DFF" opacity="1.000000" stroke="none" 
	d="
M2110.092529,2438.141846 
	C2110.709229,2438.881836 2110.352783,2440.463623 2109.226074,2443.002930 
	C2108.677246,2442.301758 2108.898193,2440.642578 2110.092529,2438.141846 
z"/>
<path fill="#110DFF" opacity="1.000000" stroke="none" 
	d="
M3215.171875,1812.154053 
	C3215.982666,1812.804810 3215.713379,1813.807007 3214.486328,1815.237305 
	C3213.417480,1814.592285 3213.605469,1813.538940 3215.171875,1812.154053 
z"/>
<path fill="#110DFF" opacity="1.000000" stroke="none" 
	d="
M3226.486816,1782.886719 
	C3227.031494,1783.573975 3226.672607,1784.943604 3225.596436,1787.113037 
	C3225.113770,1786.464844 3225.348877,1785.016968 3226.486816,1782.886719 
z"/>
<path fill="#110DFF" opacity="1.000000" stroke="none" 
	d="
M2182.441895,2250.940674 
	C2182.988281,2251.652588 2182.584961,2253.006104 2181.452148,2255.146240 
	C2180.979004,2254.482666 2181.235596,2253.032471 2182.441895,2250.940674 
z"/>
<path fill="#110DFF" opacity="1.000000" stroke="none" 
	d="
M2163.486084,2300.667480 
	C2164.144775,2301.148682 2163.968750,2301.885986 2163.202637,2303.007812 
	C2162.064209,2302.610352 2162.077148,2301.787598 2163.486084,2300.667480 
z"/>
<path fill="#1314FF" opacity="1.000000" stroke="none" 
	d="
M2380.479736,2307.154297 
	C2380.005859,2306.675781 2380.273193,2305.998291 2381.028809,2304.958984 
	C2381.985840,2305.417236 2381.886963,2306.203613 2380.479736,2307.154297 
z"/>
<path fill="#110DFF" opacity="1.000000" stroke="none" 
	d="
M2155.507812,2320.763184 
	C2156.162109,2321.234131 2155.992920,2321.926514 2155.283691,2322.987305 
	C2154.056396,2322.636719 2154.036377,2321.846191 2155.507812,2320.763184 
z"/>
<path fill="#1314FF" opacity="1.000000" stroke="none" 
	d="
M2372.646240,2327.592773 
	C2372.102295,2327.058838 2372.405518,2326.202393 2373.374512,2324.911377 
	C2374.261963,2325.453613 2374.079590,2326.384766 2372.646240,2327.592773 
z"/>
<path fill="#1314FF" opacity="1.000000" stroke="none" 
	d="
M2364.925049,2348.039062 
	C2364.314209,2347.426514 2364.680420,2346.407959 2365.829834,2344.861328 
	C2366.792725,2345.487305 2366.555664,2346.587402 2364.925049,2348.039062 
z"/>
<path fill="#110DFF" opacity="1.000000" stroke="none" 
	d="
M2142.471436,2354.820801 
	C2143.021240,2355.508301 2142.668945,2356.896484 2141.597168,2359.098389 
	C2141.108154,2358.448730 2141.338867,2356.984863 2142.471436,2354.820801 
z"/>
<path fill="#0E0EFF" opacity="1.000000" stroke="none" 
	d="
M3007.425781,2356.703125 
	C3008.089355,2357.244873 3007.861328,2357.998779 3006.996094,2359.109863 
	C3005.749512,2358.623535 3005.807861,2357.772949 3007.425781,2356.703125 
z"/>
<path fill="#110DFF" opacity="1.000000" stroke="none" 
	d="
M2139.123535,2364.095215 
	C2139.909912,2364.780029 2139.589355,2365.813232 2138.270752,2367.269043 
	C2137.270020,2366.582031 2137.517822,2365.499268 2139.123535,2364.095215 
z"/>
<path fill="#1314FF" opacity="1.000000" stroke="none" 
	d="
M2332.532227,2431.305176 
	C2332.014160,2430.819580 2332.270752,2430.096191 2333.044189,2428.979980 
	C2334.058350,2429.434570 2333.973633,2430.261230 2332.532227,2431.305176 
z"/>
<path fill="#FEFAFF" opacity="1.000000" stroke="none" 
	d="
M1140.000488,1609.632812 
	C1392.609009,1609.604858 1643.217529,1609.585327 1893.826050,1609.507690 
	C1902.519409,1609.505005 1911.137207,1609.670898 1919.604126,1611.907349 
	C1932.177490,1615.228516 1938.808472,1622.678467 1940.590210,1635.446289 
	C1942.015503,1645.659912 1939.856934,1655.232544 1936.087036,1664.689941 
	C1926.483032,1688.784058 1917.001343,1712.928223 1907.655884,1737.123901 
	C1892.310181,1776.854248 1877.140381,1816.652344 1861.843140,1856.401611 
	C1838.412354,1917.285400 1814.892822,1978.135010 1791.490967,2039.029907 
	C1764.990723,2107.986328 1738.585815,2176.979492 1712.127441,2245.951660 
	C1676.608521,2338.543701 1641.125122,2431.149414 1605.520996,2523.708496 
	C1595.972900,2548.531250 1585.851196,2573.133789 1576.322632,2597.963623 
	C1549.620605,2667.545410 1523.149536,2737.216064 1496.477661,2806.809570 
	C1465.749268,2886.987061 1434.905029,2967.120361 1404.105957,3047.270752 
	C1401.957764,3052.861084 1399.557983,3058.364258 1397.634521,3064.029785 
	C1393.204346,3077.078369 1383.464111,3082.802490 1370.472412,3083.991455 
	C1365.840210,3084.415283 1361.150879,3084.289062 1356.487671,3084.289551 
	C1267.841553,3084.302002 1179.195435,3084.312012 1090.549316,3084.256592 
	C1084.566895,3084.252930 1078.463745,3084.388672 1072.625122,3083.320068 
	C1054.655884,3080.031982 1045.096924,3065.668701 1049.548340,3048.068604 
	C1052.150513,3037.780273 1055.923584,3027.746094 1059.721924,3017.808350 
	C1093.705933,2928.894531 1127.835815,2840.036865 1161.876953,2751.144775 
	C1189.016235,2680.275146 1216.142090,2609.399902 1243.182861,2538.492676 
	C1281.361572,2438.379395 1319.356445,2338.195801 1357.617432,2238.114014 
	C1389.921143,2153.615234 1422.541504,2069.237549 1454.890015,1984.755615 
	C1459.606934,1972.436768 1463.591309,1959.837524 1467.698364,1947.991821 
	C1464.326538,1942.918945 1460.046875,1944.208862 1456.394043,1944.177368 
	C1438.399536,1944.021851 1420.403076,1944.126343 1402.407227,1944.126343 
	C1214.450806,1944.126953 1026.494385,1944.128174 838.537964,1944.111328 
	C831.875977,1944.110718 825.159180,1944.435059 818.562378,1943.727539 
	C800.039001,1941.740601 789.998779,1929.455078 791.587097,1910.913818 
	C792.332092,1902.217163 795.458740,1894.133301 798.743042,1886.059570 
	C816.299438,1842.902222 833.619141,1799.648438 851.076050,1756.450439 
	C866.287048,1718.810181 881.571472,1681.199829 896.823730,1643.576172 
	C897.824341,1641.107910 898.912476,1638.671265 899.814636,1636.167480 
	C905.937927,1619.174438 918.193420,1610.631348 936.057495,1609.911865 
	C942.047607,1609.670532 948.049255,1609.643799 954.045654,1609.642090 
	C1015.363892,1609.624268 1076.682129,1609.631470 1140.000488,1609.632812 
z"/>
<path fill="#FEFAFF" opacity="1.000000" stroke="none" 
	d="
M2828.000000,1503.724365 
	C2223.519531,1503.724243 1621.038940,1503.724609 1018.558350,1503.717651 
	C1011.894836,1503.717529 1005.190308,1504.081665 998.575195,1503.490234 
	C975.290039,1501.408569 964.010132,1486.159912 969.353271,1463.490356 
	C971.634399,1453.811890 974.938782,1444.313843 978.489014,1435.004883 
	C1008.605774,1356.036743 1039.080078,1277.204102 1068.933960,1198.137207 
	C1074.117920,1184.407593 1083.568726,1177.952515 1097.062622,1176.312256 
	C1104.297241,1175.432983 1111.700562,1175.836304 1119.027710,1175.836060 
	C1668.857788,1175.821167 2218.687988,1175.826904 2768.518066,1175.823486 
	C2978.453125,1175.822144 3188.388428,1175.803101 3398.323486,1175.794312 
	C3402.988525,1175.794189 3407.668701,1175.582886 3412.316406,1175.873657 
	C3437.833984,1177.470825 3449.133057,1192.761719 3443.304932,1217.925659 
	C3442.106934,1223.099365 3440.376709,1228.182129 3438.508301,1233.162964 
	C3426.586670,1264.943726 3414.563232,1296.686279 3402.562744,1328.437500 
	C3385.147949,1374.515503 3367.730225,1420.592407 3350.296631,1466.663330 
	C3348.410156,1471.648804 3346.391357,1476.583984 3344.470703,1481.556641 
	C3339.056152,1495.574951 3328.254883,1502.204834 3313.834473,1503.460083 
	C3307.877441,1503.978516 3301.848145,1503.724365 3295.851562,1503.724609 
	C3140.567627,1503.732422 2985.283936,1503.727417 2828.000000,1503.724365 
z"/>
<path fill="#E11CFF" opacity="1.000000" stroke="none" 
	d="
M1291.168213,2579.447266 
	C1337.471924,2457.935791 1383.144775,2337.844482 1428.957031,2217.805908 
	C1462.424072,2130.114746 1496.084106,2042.497437 1529.629517,1954.836182 
	C1533.437012,1944.886353 1537.467896,1934.994995 1540.679932,1924.849976 
	C1546.860107,1905.329590 1538.141357,1889.946411 1518.352051,1885.869019 
	C1511.271729,1884.410278 1503.796387,1884.511719 1496.500854,1884.507446 
	C1369.857788,1884.433716 1243.214600,1884.454346 1116.571533,1884.454468 
	C1040.585693,1884.454468 964.599731,1884.486572 888.613953,1884.402954 
	C881.339050,1884.394897 873.957397,1885.432617 866.942444,1883.264771 
	C864.624207,1879.784058 866.449036,1876.772339 867.685608,1873.793945 
	C885.300293,1831.368896 901.271362,1788.281738 919.967346,1746.281372 
	C929.963501,1723.824829 938.344482,1700.633301 946.969482,1677.592041 
	C949.452271,1670.959595 953.163025,1667.797363 960.147644,1668.077271 
	C964.805359,1668.264038 969.477600,1668.076660 974.143372,1668.076660 
	C1264.089478,1668.074707 1554.035522,1668.074829 1843.981567,1668.074829 
	C1851.274902,1668.074829 1858.568115,1668.074951 1865.011719,1668.074951 
	C1868.971558,1673.017334 1866.534424,1676.792114 1865.266846,1680.306396 
	C1858.261719,1699.727417 1851.210205,1719.136108 1843.815063,1738.411255 
	C1809.250610,1828.502441 1774.575439,1918.551392 1739.925049,2008.609619 
	C1721.998047,2055.202637 1704.015381,2101.774414 1686.102295,2148.372803 
	C1661.494751,2212.385010 1637.010620,2276.444824 1612.324951,2340.426758 
	C1580.931885,2421.792236 1549.303223,2503.066895 1517.941162,2584.444580 
	C1494.008545,2646.544922 1470.395752,2708.768555 1446.525757,2770.893311 
	C1417.408569,2846.674805 1388.169189,2922.409424 1358.988647,2998.166748 
	C1356.595459,3004.379883 1354.152100,3010.576172 1351.908081,3016.843506 
	C1349.877563,3022.514893 1346.153320,3025.566895 1339.996948,3025.491455 
	C1335.999146,3025.442383 1331.999390,3025.581787 1328.000488,3025.582275 
	C1266.678589,3025.589111 1205.356567,3025.622559 1144.034668,3025.568848 
	C1120.679565,3025.548340 1120.281128,3024.733643 1128.401123,3004.029785 
	C1138.105835,2979.284912 1147.471924,2954.407227 1156.995483,2929.591553 
	C1188.955811,2846.312256 1220.939453,2763.042480 1252.874390,2679.753418 
	C1265.502197,2646.819336 1278.025879,2613.845459 1291.168213,2579.447266 
z"/>
<path fill="#E11CFF" opacity="1.000000" stroke="none" 
	d="
M2143.999512,1445.392334 
	C1784.800049,1445.392212 1427.600586,1445.392334 1070.401123,1445.385132 
	C1063.071167,1445.384888 1055.732788,1445.499023 1048.413452,1445.196533 
	C1041.008301,1444.890625 1039.343384,1442.300903 1042.193115,1434.765259 
	C1053.250732,1405.524902 1064.524536,1376.366089 1075.723633,1347.179321 
	C1087.885254,1315.484009 1100.047729,1283.789185 1112.224731,1252.099731 
	C1113.896606,1247.748779 1115.487671,1243.354614 1117.422119,1239.120239 
	C1119.183960,1235.263794 1122.130249,1232.859741 1126.710815,1232.880371 
	C1134.039917,1232.913452 1141.369629,1232.744995 1148.699097,1232.744873 
	C1847.104004,1232.737549 2545.508789,1232.738037 3243.913818,1232.738037 
	C3279.233887,1232.738037 3314.554199,1232.735107 3349.874268,1232.741699 
	C3354.538818,1232.742554 3359.210449,1232.642090 3363.866699,1232.852295 
	C3371.422607,1233.193359 3373.695068,1236.056641 3371.175781,1242.880493 
	C3362.412842,1266.615601 3353.372314,1290.247803 3344.468506,1313.931152 
	C3330.649414,1350.688721 3317.625732,1387.770264 3302.782959,1424.109253 
	C3292.805420,1448.536743 3298.835693,1445.333374 3271.577637,1445.338989 
	C2896.385010,1445.415894 2521.192383,1445.391235 2143.999512,1445.392334 
z"/>
</svg>